<svg id="Layer_3_copy_10" data-name="Layer 3 copy 10" xmlns="http://www.w3.org/2000/svg" viewBox="0 0 1024 1024"><defs><style>.cls-1{fill:#1e2a31;}</style></defs><polygon class="cls-1" points="-3.71 140.01 -1.57 139.63 -0.1 139.37 22.42 135.37 24.57 134.99 48.56 130.74 50.71 130.35 74.7 126.1 76.84 125.72 100.83 121.46 102.98 121.08 126.98 116.82 129.11 116.44 148.83 112.95 150.98 112.57 174.96 108.31 177.11 107.93 201.1 103.67 203.25 103.29 227.25 99.04 229.38 98.66 253.39 94.4 255.53 94.02 279.52 89.76 281.67 89.38 785.51 0 795.68 0 280.74 91.35 278.59 91.73 254.6 95.99 252.46 96.37 228.46 100.63 226.32 101.01 202.32 105.26 200.17 105.64 176.18 109.9 174.03 110.28 150.05 114.54 147.9 114.92 128.19 118.41 126.05 118.79 102.05 123.05 99.9 123.43 75.91 127.69 73.77 128.07 49.78 132.32 47.63 132.7 23.64 136.96 21.5 137.34 -0.1 141.17 -2.5 141.6 -3.71 140.01"/><polygon class="cls-1" points="671.67 0 292.06 67.34 289.92 67.72 265.92 71.98 263.78 72.36 239.78 76.62 237.64 77 213.64 81.25 211.5 81.63 187.51 85.89 185.36 86.27 161.37 90.53 159.22 90.91 139.51 94.4 137.38 94.78 113.38 99.04 111.23 99.42 87.24 103.68 85.09 104.06 61.1 108.31 58.95 108.7 34.97 112.95 32.82 113.33 8.83 117.59 6.68 117.97 -0.1 119.17 -0.1 117.37 7.61 116 9.76 115.62 33.75 111.36 35.9 110.98 59.88 106.73 62.03 106.34 86.02 102.09 88.17 101.71 112.16 97.45 114.31 97.07 138.31 92.81 140.44 92.44 160.15 88.94 162.3 88.56 186.29 84.3 188.44 83.92 212.42 79.66 214.57 79.28 238.57 75.03 240.71 74.65 264.71 70.39 266.85 70.01 290.85 65.75 292.99 65.37 661.49 0 671.67 0"/><polygon class="cls-1" points="547.65 0 303.39 43.33 301.24 43.71 277.25 47.97 275.11 48.35 251.11 52.61 248.97 52.99 224.97 57.24 222.82 57.63 198.83 61.88 196.69 62.26 172.7 66.52 170.55 66.9 150.84 70.4 148.7 70.77 124.7 75.03 122.56 75.41 98.57 79.67 96.42 80.05 72.43 84.31 70.28 84.69 46.29 88.94 44.15 89.32 20.15 93.58 18.01 93.96 -0.1 97.17 -0.1 95.37 18.94 91.99 21.08 91.61 45.08 87.35 47.22 86.97 71.21 82.72 73.36 82.34 97.35 78.08 99.5 77.7 123.49 73.44 125.63 73.06 149.63 68.8 151.77 68.43 171.48 64.93 173.63 64.55 197.61 60.29 199.76 59.91 223.75 55.66 225.9 55.27 249.9 51.02 252.04 50.64 276.04 46.38 278.18 46 302.17 41.74 304.32 41.36 537.48 0 547.65 0"/><polygon class="cls-1" points="423.64 0 314.72 19.32 312.57 19.7 288.57 23.96 286.43 24.34 262.43 28.6 260.3 28.98 236.3 33.24 234.15 33.62 210.16 37.87 208.01 38.25 184.03 42.51 181.88 42.89 162.16 46.39 160.03 46.77 136.03 51.02 133.88 51.4 109.89 55.66 107.74 56.04 83.75 60.3 81.61 60.68 57.62 64.93 55.47 65.31 31.48 69.57 29.34 69.95 -0.1 75.18 -0.86 75.31 -3.01 75.69 -2.08 73.72 -0.1 73.37 0.07 73.34 30.27 67.98 32.41 67.6 56.4 63.34 58.55 62.96 82.54 58.71 84.68 58.33 108.67 54.07 110.82 53.69 134.81 49.43 136.96 49.05 160.96 44.8 163.09 44.42 182.81 40.92 184.95 40.54 208.94 36.28 211.09 35.9 235.08 31.65 237.22 31.27 261.23 27.01 263.36 26.63 287.36 22.37 289.5 21.99 313.5 17.73 315.64 17.35 413.47 0 423.64 0"/><polygon class="cls-1" points="300.83 -2.02 299.9 -0.05 299.63 0 297.76 0.33 273.76 4.59 271.62 4.97 247.62 9.23 245.47 9.61 221.49 13.86 219.34 14.24 195.35 18.5 193.2 18.88 173.49 22.38 171.35 22.76 147.36 27.01 145.21 27.39 121.22 31.65 119.07 32.03 95.08 36.29 92.93 36.67 68.94 40.92 66.8 41.3 42.8 45.56 40.66 45.94 10.46 51.3 8.32 51.68 -0.1 53.17 -0.1 51.37 9.25 49.71 11.39 49.33 41.59 43.97 43.73 43.59 67.73 39.33 69.87 38.95 93.86 34.7 96.01 34.32 120 30.06 122.15 29.68 146.14 25.42 148.29 25.04 172.28 20.79 174.42 20.41 194.13 16.91 196.28 16.53 220.27 12.27 222.41 11.89 246.4 7.64 248.55 7.26 272.55 3 274.69 2.62 289.45 0 298.69 -1.64 300.83 -2.02"/><polygon class="cls-1" points="175.62 0 158.68 3 156.53 3.38 132.54 7.64 130.4 8.02 106.41 12.28 104.26 12.66 80.27 16.91 78.13 17.29 54.13 21.55 51.99 21.93 21.79 27.29 19.64 27.67 -0.1 31.17 -0.1 29.36 20.57 25.7 22.72 25.32 52.92 19.96 55.06 19.58 79.06 15.32 81.2 14.94 105.19 10.69 107.34 10.31 131.33 6.05 133.47 5.67 157.46 1.42 159.61 1.03 165.44 0 175.62 0"/><polygon class="cls-1" points="-0.1 682.52 3 675.95 3.77 674.31 12.44 655.94 13.21 654.3 21.87 635.93 22.65 634.29 44.43 588.12 45.35 586.17 55.65 564.33 56.58 562.37 66.88 540.53 67.8 538.58 78.1 516.74 79.02 514.79 89.33 492.94 90.25 491 100.55 469.15 101.47 467.2 278.59 91.73 279.52 89.76 289.92 67.72 290.85 65.75 301.24 43.71 302.17 41.74 312.57 19.7 313.5 17.73 321.86 0 323.83 0 315.64 17.35 314.72 19.32 304.32 41.36 303.39 43.33 292.99 65.37 292.06 67.34 281.67 89.38 280.74 91.35 102.55 469.06 102.55 469.07 101.64 471.02 91.33 492.86 90.41 494.81 80.11 516.65 79.19 518.6 79.19 518.61 68.88 540.45 67.96 542.4 57.66 564.24 56.74 566.19 46.43 588.03 45.51 589.99 24.1 635.38 23.32 637.02 14.66 655.39 13.88 657.03 5.22 675.41 4.45 677.04 -0.1 686.68 -4.22 695.41 -0.1 682.52"/><polygon class="cls-1" points="-4.46 640.99 -0.1 631.74 4.2 622.62 4.98 620.98 31.21 565.38 32.13 563.43 42.43 541.58 43.36 539.63 53.66 517.79 54.58 515.84 64.88 494 65.8 492.04 76.11 470.2 77.02 468.25 87.33 446.41 88.25 444.46 252.46 96.37 253.39 94.4 263.78 72.36 264.71 70.39 275.11 48.35 276.04 46.38 286.43 24.34 287.36 22.37 297.76 0.33 297.92 0 298.69 -1.64 300.83 -2.02 299.9 -0.05 299.88 0 289.5 21.99 288.57 23.96 278.18 46 277.25 47.97 266.85 70.01 265.92 71.98 255.53 94.02 254.6 95.99 89.33 446.32 89.33 446.33 88.42 448.27 88.42 448.28 78.11 470.12 77.19 472.06 66.89 493.91 65.97 495.86 55.66 517.7 54.74 519.65 54.74 519.66 44.44 541.49 43.52 543.45 33.21 565.29 32.29 567.25 6.43 622.07 5.66 623.71 -0.1 635.91 -3.01 642.08 -3.78 643.72 -4.46 640.99"/><polygon class="cls-1" points="-0.1 580.98 17.99 542.64 17.99 542.63 18.91 540.68 29.21 518.84 30.13 516.88 40.44 495.05 40.44 495.04 41.36 493.1 41.36 493.09 51.66 471.25 52.58 469.3 62.89 447.46 62.89 447.45 63.8 445.51 74.11 423.66 75.03 421.72 226.32 101.01 227.25 99.04 237.64 77 238.57 75.03 248.97 52.99 249.9 51.02 260.3 28.98 261.23 27.01 271.62 4.97 272.55 3 273.97 0 275.92 0 274.69 2.62 273.76 4.59 263.36 26.63 262.43 28.6 252.04 50.64 251.11 52.61 240.71 74.65 239.78 76.62 229.38 98.66 228.46 100.63 76.11 423.58 75.19 425.52 64.88 447.37 63.97 449.31 53.66 471.16 52.74 473.11 42.44 494.95 41.52 496.9 31.21 518.74 30.29 520.7 19.99 542.54 19.07 544.49 19.07 544.5 -0.1 585.12 -0.1 580.98"/><polygon class="cls-1" points="251.97 0 248.55 7.26 247.62 9.23 237.22 31.27 236.3 33.24 225.9 55.27 224.97 57.24 214.57 79.28 213.64 81.25 203.25 103.29 202.32 105.26 62.89 400.83 61.97 402.78 51.66 424.62 51.66 424.63 50.75 426.57 40.44 448.41 39.52 450.37 29.22 472.21 28.3 474.16 17.99 496 17.07 497.96 6.77 519.8 5.85 521.75 -0.1 534.36 -0.1 530.18 4.76 519.88 5.68 517.93 15.98 496.09 16.91 494.13 27.21 472.29 28.13 470.34 38.43 448.5 39.35 446.55 39.35 446.54 49.66 424.7 50.58 422.76 60.88 400.91 61.8 398.96 200.17 105.64 201.1 103.67 211.5 81.63 212.42 79.66 222.82 57.63 223.75 55.66 234.15 33.62 235.08 31.65 245.47 9.61 246.4 7.64 250.01 0 251.97 0"/><polygon class="cls-1" points="-0.1 479.41 2.76 473.35 2.76 473.34 3.69 471.39 13.99 449.55 14.91 447.6 25.21 425.76 26.13 423.8 36.44 401.96 37.36 400.02 37.36 400.01 47.66 378.17 48.58 376.22 174.03 110.28 174.96 108.31 185.36 86.27 186.29 84.3 196.69 62.26 197.61 60.29 208.01 38.25 208.94 36.28 219.34 14.24 220.27 12.27 226.06 0 228.02 0 222.41 11.89 221.49 13.86 211.09 35.9 210.16 37.87 199.76 59.91 198.83 61.88 188.44 83.92 187.51 85.89 177.11 107.93 176.18 109.9 49.67 378.09 48.75 380.04 38.44 401.88 37.53 403.83 27.22 425.67 26.3 427.63 16 449.47 15.08 451.42 4.77 473.26 3.85 475.22 -0.1 483.6 -0.1 479.41"/><polygon class="cls-1" points="-0.1 428.65 0.77 426.81 1.69 424.86 11.99 403.01 12.91 401.06 23.22 379.22 24.14 377.27 34.44 355.43 35.36 353.48 147.9 114.92 148.83 112.95 159.22 90.91 160.15 88.94 170.55 66.9 171.48 64.93 181.88 42.89 182.81 40.92 193.2 18.88 194.13 16.91 202.11 0 204.08 0 196.28 16.53 195.35 18.5 184.95 40.54 184.03 42.51 173.63 64.55 172.7 66.52 162.3 88.56 161.37 90.53 150.98 112.57 150.05 114.54 36.45 355.35 35.53 357.29 25.22 379.14 24.31 381.09 14 402.93 13.08 404.88 2.78 426.72 2.78 426.73 1.86 428.68 -0.1 432.83 -0.1 428.65"/><polygon class="cls-1" points="184.82 -1.63 184.05 0 174.42 20.41 173.49 22.38 163.09 44.42 162.16 46.39 151.77 68.43 150.84 70.4 140.44 92.44 139.51 94.4 129.11 116.44 128.19 118.41 25.39 336.32 24.47 338.27 14.16 360.11 14.16 360.12 13.25 362.06 2.94 383.91 2.02 385.86 -0.1 390.36 -0.1 386.21 0.94 384 1.86 382.05 12.17 360.21 13.09 358.27 13.09 358.26 23.39 336.41 24.31 334.47 126.05 118.79 126.98 116.82 137.38 94.78 138.31 92.81 148.7 70.77 149.63 68.8 160.03 46.77 160.96 44.8 171.35 22.76 172.28 20.79 182.09 0 182.68 -1.25 184.82 -1.63"/><polygon class="cls-1" points="160.1 0 159.61 1.03 158.68 3 148.29 25.04 147.36 27.01 136.96 49.05 136.03 51.02 125.63 73.06 124.7 75.03 114.31 97.07 113.38 99.04 102.98 121.08 102.05 123.05 12.17 313.59 11.25 315.53 0.95 337.38 0.03 339.32 -0.1 339.6 -0.1 339.1 -1.06 337.45 -0.14 335.51 -0.1 335.43 10.17 313.67 10.17 313.66 11.08 311.72 11.08 311.71 99.9 123.43 100.83 121.46 111.23 99.42 112.16 97.45 122.56 75.41 123.49 73.44 133.88 51.4 134.81 49.43 145.21 27.39 146.14 25.42 156.53 3.38 157.46 1.42 158.13 0 160.1 0"/><polygon class="cls-1" points="136.15 0 133.47 5.67 132.54 7.64 122.15 29.68 121.22 31.65 110.82 53.69 109.89 55.66 99.5 77.7 98.57 79.67 88.17 101.71 87.24 103.68 76.84 125.72 75.91 127.69 -0.1 288.83 -1.05 290.84 -1.97 292.79 -3.06 290.92 -3.06 290.91 -2.14 288.97 -0.1 284.65 73.77 128.07 74.7 126.1 85.09 104.06 86.02 102.09 96.42 80.05 97.35 78.08 107.74 56.04 108.67 54.07 119.07 32.03 120 30.06 130.4 8.02 131.33 6.05 134.18 0 136.15 0"/><polygon class="cls-1" points="112.2 0 107.34 10.31 106.41 12.28 96.01 34.32 95.08 36.29 84.68 58.33 83.75 60.3 73.36 82.34 72.43 84.31 62.03 106.34 61.1 108.31 50.71 130.35 49.78 132.32 -0.1 238.06 -0.1 233.88 47.63 132.7 48.56 130.74 58.95 108.7 59.88 106.73 70.28 84.69 71.21 82.72 81.61 60.68 82.54 58.71 92.93 36.67 93.86 34.7 104.26 12.66 105.19 10.69 110.23 0 112.2 0"/><polygon class="cls-1" points="-0.1 183.12 21.5 137.34 22.42 135.37 32.82 113.33 33.75 111.36 44.15 89.32 45.08 87.35 55.47 65.31 56.4 63.34 66.8 41.3 67.73 39.33 78.13 17.29 79.06 15.32 86.28 0 88.25 0 81.2 14.94 80.27 16.91 69.87 38.95 68.94 40.92 58.55 62.96 57.62 64.93 47.22 86.97 46.29 88.94 35.9 110.98 34.97 112.95 24.57 134.99 23.64 136.96 -0.1 187.29 -0.1 183.12"/><polygon class="cls-1" points="-3.71 140.01 -0.1 132.35 6.68 117.97 7.61 116 18.01 93.96 18.94 91.99 29.34 69.95 30.27 67.98 40.66 45.94 41.59 43.97 51.99 21.93 52.92 19.96 62.33 0 64.3 0 55.06 19.58 54.13 21.55 43.73 43.59 42.8 45.56 32.41 67.6 31.48 69.57 21.08 91.61 20.15 93.58 9.76 115.62 8.83 117.59 -0.1 136.51 -1.57 139.63 -2.5 141.6 -3.71 140.01"/><polygon class="cls-1" points="34.66 0 22.72 25.32 21.79 27.29 11.39 49.33 10.46 51.3 0.07 73.34 -0.1 73.7 -0.86 75.31 -3.01 75.69 -2.08 73.72 -0.1 69.52 8.32 51.68 9.25 49.71 19.64 27.67 20.57 25.7 32.7 0 34.66 0"/><polygon class="cls-1" points="10.72 0 -0.1 22.93 -0.1 18.76 8.75 0 10.72 0"/><polygon class="cls-1" points="422.2 1018.93 425.15 1024 423.08 1024 418.53 1016.17 416.23 1012.21 390.48 967.91 388.18 963.96 362.42 919.65 360.13 915.69 334.37 871.39 332.07 867.43 101.64 471.02 100.55 469.15 88.42 448.28 88.42 448.27 87.33 446.41 75.19 425.52 74.11 423.66 61.97 402.78 60.88 400.91 48.75 380.04 47.66 378.17 35.53 357.29 34.44 355.43 24.47 338.27 23.39 336.41 11.25 315.53 10.17 313.67 10.17 313.66 -0.1 296 -1.97 292.79 -3.06 290.92 -3.06 290.91 -2.14 288.97 -1.05 290.84 -0.1 292.48 11.08 311.71 11.08 311.72 12.17 313.59 24.31 334.47 25.39 336.32 35.36 353.48 36.45 355.35 48.58 376.22 49.67 378.09 61.8 398.96 62.89 400.83 75.03 421.72 76.11 423.58 88.25 444.46 89.33 446.32 89.33 446.33 101.47 467.2 102.55 469.06 102.55 469.07 335.73 870.19 338.03 874.15 363.79 918.45 366.09 922.41 391.85 966.72 394.15 970.67 419.9 1014.97 422.2 1018.93"/><polygon class="cls-1" points="377.61 985.33 400.09 1024 398.03 1024 373.97 982.59 371.66 978.63 345.91 934.33 343.61 930.38 317.86 886.07 315.56 882.11 289.8 837.81 287.5 833.85 90.41 494.81 89.33 492.94 77.19 472.06 76.11 470.2 63.97 449.31 62.89 447.46 62.89 447.45 50.75 426.57 49.66 424.7 37.53 403.83 36.44 401.96 24.31 381.09 23.22 379.22 13.25 362.06 12.17 360.21 0.03 339.32 -0.1 339.1 -1.06 337.45 -0.14 335.51 -0.1 335.58 0.95 337.38 13.09 358.26 13.09 358.27 14.16 360.11 14.16 360.12 24.14 377.27 25.22 379.14 37.36 400.01 37.36 400.02 38.44 401.88 50.58 422.76 51.66 424.62 51.66 424.63 63.8 445.51 64.88 447.37 77.02 468.25 78.11 470.12 90.25 491 91.33 492.86 291.14 836.59 293.45 840.55 319.2 884.86 321.5 888.81 347.26 933.12 349.56 937.07 375.31 981.37 377.61 985.33"/><polygon class="cls-1" points="361.09 1000.01 375.03 1024 372.98 1024 357.43 997.26 355.13 993.3 329.37 948.99 327.07 945.03 301.32 900.73 299.02 896.78 273.26 852.47 270.97 848.51 245.21 804.21 242.91 800.25 79.19 518.61 79.19 518.6 78.1 516.74 65.97 495.86 64.88 494 52.74 473.11 51.66 471.25 39.52 450.37 38.43 448.5 26.3 427.63 25.21 425.76 13.08 404.88 11.99 403.01 2.02 385.86 0.94 384 -0.1 382.21 -0.1 378.67 1.86 382.05 2.94 383.91 12.91 401.06 14 402.93 26.13 423.8 27.22 425.67 39.35 446.54 39.35 446.55 40.44 448.41 52.58 469.3 53.66 471.16 65.8 492.04 66.89 493.91 79.02 514.79 80.11 516.65 246.57 803 248.87 806.96 274.62 851.27 276.92 855.22 302.68 899.53 304.98 903.48 330.73 947.78 333.03 951.74 358.79 996.05 361.09 1000.01"/><polygon class="cls-1" points="344.55 1014.66 349.98 1024 347.92 1024 340.9 1011.92 338.6 1007.95 312.85 963.67 310.55 959.71 284.79 915.4 282.49 911.44 256.74 867.14 254.44 863.19 228.68 818.88 226.38 814.92 200.63 770.62 198.33 766.66 67.96 542.4 66.88 540.53 54.74 519.66 54.74 519.65 53.66 517.79 41.52 496.9 40.44 495.05 40.44 495.04 28.3 474.16 27.21 472.29 15.08 451.42 13.99 449.55 1.86 428.68 0.77 426.81 -0.1 425.31 -0.1 421.78 1.69 424.86 2.78 426.72 2.78 426.73 14.91 447.6 16 449.47 28.13 470.34 29.22 472.21 41.36 493.09 41.36 493.1 42.44 494.95 54.58 515.84 55.66 517.7 67.8 538.58 68.88 540.45 201.98 769.41 204.28 773.37 230.03 817.67 232.33 821.63 258.09 865.94 260.39 869.89 286.14 914.18 288.44 918.15 314.2 962.46 316.5 966.42 342.24 1010.7 344.55 1014.66"/><polygon class="cls-1" points="323.44 1021.44 324.93 1024 322.87 1024 319.78 1018.68 317.47 1014.72 296.32 978.32 294.01 974.36 268.27 930.08 265.97 926.11 240.21 881.8 237.9 877.84 212.15 833.54 209.86 829.59 184.1 785.28 181.8 781.33 156.04 737.03 153.74 733.06 56.74 566.19 55.65 564.33 43.52 543.45 42.43 541.58 30.29 520.7 29.21 518.84 17.07 497.96 15.98 496.09 3.85 475.22 2.76 473.35 2.76 473.34 -0.1 468.42 -0.1 464.87 3.69 471.39 4.77 473.26 16.91 494.13 17.99 496 30.13 516.88 31.21 518.74 43.36 539.63 44.44 541.49 56.58 562.37 57.66 564.24 157.41 735.83 159.71 739.79 185.46 784.09 187.76 788.04 213.52 832.35 215.82 836.31 241.57 880.6 243.87 884.56 269.63 928.87 271.93 932.84 297.68 977.12 299.98 981.08 321.14 1017.48 323.44 1021.44"/><polygon class="cls-1" points="278.85 987.84 299.87 1024 297.81 1024 275.19 985.08 272.88 981.12 251.73 944.73 249.42 940.77 223.68 896.48 221.38 892.52 195.62 848.21 193.32 844.25 167.56 799.95 165.27 796 139.51 751.69 137.21 747.73 111.46 703.43 109.16 699.47 45.51 589.99 44.43 588.12 32.29 567.25 31.21 565.38 19.07 544.5 19.07 544.49 17.99 542.64 17.99 542.63 5.85 521.75 4.76 519.88 -0.1 511.52 -0.1 507.98 5.68 517.93 6.77 519.8 18.91 540.68 19.99 542.54 32.13 563.43 33.21 565.29 45.35 586.17 46.43 588.03 112.82 702.23 115.12 706.19 140.87 750.49 143.17 754.45 168.93 798.76 171.23 802.71 196.98 847 199.28 850.97 225.04 895.28 227.34 899.24 253.08 943.52 255.39 947.49 276.54 983.88 278.85 987.84"/><polygon class="cls-1" points="103.77 991.54 122.64 1024 120.59 1024 100.12 988.78 97.81 984.82 72.06 940.53 69.76 936.57 44 892.26 41.7 888.3 15.96 844 13.65 840.04 -0.1 816.39 -0.1 812.85 17.31 842.8 19.61 846.76 45.36 891.05 47.66 895.01 73.42 939.32 75.72 943.28 101.47 987.58 103.77 991.54"/><polygon class="cls-1" points="93.89 1017.65 97.58 1024 95.53 1024 90.24 1014.9 87.94 1010.94 55.54 955.19 53.23 951.23 27.48 906.94 25.18 902.98 -0.1 859.49 -0.58 858.67 -2.88 854.7 -0.1 856.8 -0.1 855.96 0.77 857.46 3.07 861.42 28.83 905.73 31.13 909.69 56.88 953.98 59.19 957.94 91.59 1013.68 93.89 1017.65"/><polyline class="cls-1" points="71.4 1025.59 70.48 1024 45.65 981.3 43.35 977.34 10.94 921.6 8.64 917.63 -0.1 902.6 -0.1 899.05 12.31 920.4 14.62 924.36 47.02 980.1 49.32 984.06 72.54 1024 75.07 1028.36"/><polygon class="cls-1" points="32.78 998.72 47.48 1024 45.42 1024 29.12 995.96 26.82 992 1.07 947.71 -0.1 945.7 -1.23 943.75 -0.1 944.6 -0.1 942.16 2.43 946.5 4.73 950.46 30.48 994.76 32.78 998.72"/><polygon class="cls-1" points="16.26 1013.4 22.42 1024 20.36 1024 12.59 1010.64 10.29 1006.68 -0.1 988.8 -0.1 985.26 13.96 1009.44 16.26 1013.4"/><polygon class="cls-1" points="539.87 1024 536.91 1024 338.03 874.15 334.37 871.39 293.45 840.55 289.8 837.81 248.87 806.96 245.21 804.21 204.28 773.37 200.63 770.62 159.71 739.79 156.04 737.03 115.12 706.19 111.46 703.43 23.32 637.02 21.87 635.93 5.66 623.71 4.2 622.62 -0.1 619.38 -0.1 617.15 4.98 620.98 6.43 622.07 22.65 634.29 24.1 635.38 109.16 699.47 112.82 702.23 153.74 733.06 157.41 735.83 198.33 766.66 201.98 769.41 242.91 800.25 246.57 803 287.5 833.85 291.14 836.59 332.07 867.43 335.73 870.19 539.87 1024"/><polygon class="cls-1" points="503.87 1024 500.92 1024 366.09 922.41 362.42 919.65 321.5 888.81 317.86 886.07 276.92 855.22 273.26 852.47 232.33 821.63 228.68 818.88 187.76 788.04 184.1 785.28 143.17 754.45 139.51 751.69 13.88 657.03 12.44 655.94 -0.1 646.5 -3.78 643.72 -4.46 640.99 -3.01 642.08 -0.1 644.27 13.21 654.3 14.66 655.39 137.21 747.73 140.87 750.49 181.8 781.33 185.46 784.09 226.38 814.92 230.03 817.67 270.97 848.51 274.62 851.27 315.56 882.11 319.2 884.86 360.13 915.69 363.79 918.45 503.87 1024"/><polygon class="cls-1" points="467.87 1024 464.93 1024 394.15 970.67 390.48 967.91 349.56 937.07 345.91 934.33 304.98 903.48 301.32 900.73 260.39 869.89 256.74 867.14 215.82 836.31 212.15 833.54 171.23 802.71 167.56 799.95 4.45 677.04 3 675.95 -0.1 673.62 -0.1 671.4 3.77 674.31 5.22 675.41 165.27 796 168.93 798.76 209.86 829.59 213.52 832.35 254.44 863.19 258.09 865.94 299.02 896.78 302.68 899.53 343.61 930.38 347.26 933.12 388.18 963.96 391.85 966.72 467.87 1024"/><polygon class="cls-1" points="431.88 1024 428.93 1024 422.2 1018.93 418.53 1016.17 377.61 985.33 373.97 982.59 333.03 951.74 329.37 948.99 288.44 918.15 284.79 915.4 243.87 884.56 240.21 881.8 199.28 850.97 195.62 848.21 -0.1 700.74 -4.22 695.41 -0.1 698.51 193.32 844.25 196.98 847 237.9 877.84 241.57 880.6 282.49 911.44 286.14 914.18 327.07 945.03 330.73 947.78 371.66 978.63 375.31 981.37 416.23 1012.21 419.9 1014.97 431.88 1024"/><polygon class="cls-1" points="358.79 996.05 395.87 1024 392.93 1024 361.09 1000.01 357.43 997.26 316.5 966.42 312.85 963.67 271.93 932.84 268.27 930.08 227.34 899.24 223.68 896.48 -0.1 727.87 -0.1 725.64 221.38 892.52 225.04 895.28 265.97 926.11 269.63 928.87 310.55 959.71 314.2 962.46 355.13 993.3 358.79 996.05"/><polygon class="cls-1" points="342.24 1010.7 359.89 1024 356.94 1024 344.55 1014.66 340.9 1011.92 299.98 981.08 296.32 978.32 255.39 947.49 251.73 944.73 -0.1 754.98 -0.1 752.76 249.42 940.77 253.08 943.52 294.01 974.36 297.68 977.12 338.6 1007.95 342.24 1010.7"/><polygon class="cls-1" points="321.14 1017.48 329.79 1024 326.84 1024 323.44 1021.44 319.78 1018.68 278.85 987.84 275.19 985.08 -0.1 777.67 -0.1 775.44 272.88 981.12 276.54 983.88 317.47 1014.72 321.14 1017.48"/><polygon class="cls-1" points="293.8 1024 290.84 1024 -0.1 804.78 -0.1 802.55 293.8 1024"/><polygon class="cls-1" points="17.31 842.8 257.79 1024 254.84 1024 19.61 846.76 15.96 844 -0.1 831.91 -0.1 829.68 13.65 840.04 17.31 842.8"/><polygon class="cls-1" points="45.36 891.05 221.81 1024 218.86 1024 47.66 895.01 44 892.26 3.07 861.42 -0.1 859.03 -0.58 858.67 -2.88 854.7 -0.1 856.8 0.77 857.46 41.7 888.3 45.36 891.05"/><polygon class="cls-1" points="185.81 1024 182.85 1024 75.72 943.28 72.06 940.53 31.13 909.69 27.48 906.94 -0.1 886.15 -0.1 883.93 25.18 902.98 28.83 905.73 69.76 936.57 73.42 939.32 185.81 1024"/><polygon class="cls-1" points="149.81 1024 146.85 1024 103.77 991.54 100.12 988.78 59.19 957.94 55.54 955.19 14.62 924.36 10.94 921.6 -0.1 913.27 -0.1 911.05 8.64 917.63 12.31 920.4 53.23 951.23 56.88 953.98 97.81 984.82 101.47 987.58 149.81 1024"/><polygon class="cls-1" points="91.59 1013.68 105.28 1024 102.32 1024 93.89 1017.65 90.24 1014.9 49.32 984.06 45.65 981.3 4.73 950.46 1.07 947.71 -0.1 946.83 -0.1 945.7 -1.23 943.75 -0.1 944.6 2.43 946.5 43.35 977.34 47.02 980.1 87.94 1010.94 91.59 1013.68"/><polyline class="cls-1" points="66.32 1024 32.78 998.72 29.12 995.96 -0.1 973.95 -0.1 971.72 26.82 992 30.48 994.76 69.29 1024 71.4 1025.59 75.07 1028.36"/><polygon class="cls-1" points="13.96 1009.44 33.28 1024 30.33 1024 16.26 1013.4 12.59 1010.64 -0.1 1001.07 -0.1 998.85 10.29 1006.68 13.96 1009.44"/></svg>
